<?xml version="1.0" encoding="utf-8"?>
<!-- Generator: Adobe Illustrator 15.1.0, SVG Export Plug-In . SVG Version: 6.00 Build 0)  -->
<!DOCTYPE svg PUBLIC "-//W3C//DTD SVG 1.1//EN" "http://www.w3.org/Graphics/SVG/1.1/DTD/svg11.dtd" [
	<!ENTITY st0 "fill:#E2E2E2;">
	<!ENTITY st1 "fill:#F20622;">
	<!ENTITY st2 "fill:none;stroke:#000000;stroke-width:0.5;stroke-linecap:round;stroke-linejoin:round;">
	<!ENTITY st3 "fill:#00BF09;">
]>
<svg version="1.1" id="レイヤー_1" xmlns="http://www.w3.org/2000/svg" xmlns:xlink="http://www.w3.org/1999/xlink" x="0px"
	 y="0px" width="256px" height="256px" viewBox="0 0 256 256" style="enable-background:new 0 0 256 256;" xml:space="preserve">
<g id="XMLID_1_">
	<g>
		<path style="&st3;" d="M209.58,31.37l0.04,183.77l-0.03,0.07c-39.05,4.14-78.76,8.66-117.17,13.07
			c-10.87,1.25-21.73,2.41-32.56,3.649c-16.54-0.01-30.5-4.01-30.5-10.01h-0.03c0.08,0,0.09-1.41,0.11-3.55
			c0.03-2.43,0.06-5.86,0.08-10.49c0.06-9.24,0.1-22.63,0.14-39.16c0.08-33.899,0.13-78.84,0.13-126.74
			c3.29,4.08,14.39,6.94,27.99,6.94c0,0,0.01,0,0.02,0c31.54-4,63.34-7.6,94.09-11.03C170.75,35.78,190.25,33.66,209.58,31.37z"/>
		<path style="&st0;" d="M189.15,15.35l19.6,15.46c-19.21,2.28-38.57,4.49-57.3,6.58c-30.76,3.44-62.56,7.09-94.04,11.2
			c-15.15,0-27.95-4.34-27.95-8.34c0-5,4.61-8.76,10.33-8.76L189.15,15.35z"/>
	</g>
	<g>
		<path style="&st2;" d="M57.41,48.59c-15.15,0-27.95-4.34-27.95-8.34c0-5,4.61-8.76,10.33-8.76l149.36-16.14l19.6,15.46
			c-19.21,2.28-38.57,4.49-57.3,6.58C120.69,40.83,88.89,44.48,57.41,48.59z"/>
		<path style="&st2;" d="M209.59,215.21c-39.05,4.14-78.76,8.66-117.17,13.07c-10.87,1.25-21.73,2.41-32.56,3.649
			c-16.54-0.01-30.5-4.01-30.5-10.01h-0.03c0.08,0,0.09-1.41,0.11-3.55c0.03-2.43,0.06-5.86,0.08-10.49
			c0.06-9.24,0.1-22.63,0.14-39.16c0.08-33.899,0.13-78.84,0.13-126.74c3.29,4.08,14.39,6.94,27.99,6.94c0,0,0.01,0,0.02,0
			c31.54-4,63.34-7.6,94.09-11.03c18.86-2.11,38.36-4.23,57.69-6.52l0.04,183.77L209.59,215.21z"/>
	</g>
</g>
<g>
	<path style="&st1;" d="M70.762,89.094c0.816-3.988,1.888-7.827,3.214-11.517c1.047-2.883,2.482-6.515,4.306-10.895
		c1.351-3.236,2.261-5.181,2.73-5.837c0.471-0.656,0.993-1.019,1.566-1.089c0.496-0.061,0.771,0.126,0.825,0.56
		c0.028,0.232-0.044,0.548-0.215,0.947c-0.157,0.381-0.673,1.507-1.545,3.377c-2.867,6.271-4.892,11.384-6.074,15.339
		c-1.076,3.548-1.951,7.001-2.625,10.357c-0.245,1.211-0.565,2.124-0.962,2.74c-0.58,0.921-1.219,1.424-1.917,1.51
		c-0.636,0.078-1.095-0.329-1.378-1.224c-0.123-0.363-0.249-1.071-0.379-2.126c-0.455-3.707-0.597-7.869-0.423-12.487
		c0.163-4.05,0.432-7.317,0.803-9.804c-1.287,1.827-3.089,5.543-5.408,11.149c-1.831,4.444-3.107,8.537-3.829,12.277
		c-0.298,1.548-0.533,2.514-0.707,2.897c-0.319,0.732-0.797,1.137-1.433,1.214c-0.264,0.033-0.502-0.048-0.715-0.243
		c-0.178-0.167-0.278-0.343-0.301-0.529c-0.073-0.589,0.24-2.21,0.938-4.862c0.899-3.448,2.547-7.916,4.942-13.405
		c1.424-3.276,3.165-6.788,5.224-10.535c0.977-1.788,1.723-2.959,2.237-3.51c0.475-0.499,0.943-0.777,1.409-0.834
		c0.201-0.024,0.388,0.016,0.558,0.121c0.238,0.144,0.373,0.34,0.403,0.588c0.038,0.311,0.003,0.669-0.104,1.075
		c-0.51,2-0.953,4.738-1.329,8.216c-0.588,5.598-0.647,10.304-0.179,14.119C70.459,87.211,70.582,88.015,70.762,89.094z"/>
	<path style="&st1;" d="M86.369,86.776c-0.401,0.963-0.812,1.785-1.232,2.465c-0.828,1.33-1.723,2.054-2.685,2.171
		c-0.837,0.103-1.537-0.212-2.1-0.946c-0.357-0.476-0.579-1.063-0.665-1.76c-0.211-1.722,0.099-3.688,0.929-5.899
		c0.926-2.459,2.166-4.414,3.719-5.864c1.019-0.943,2.047-1.479,3.086-1.606c0.651-0.08,1.219,0.055,1.702,0.405
		c0.416,0.312,0.651,0.691,0.707,1.141c0.042,0.341-0.032,0.83-0.222,1.467c0.273,0.297,0.425,0.571,0.455,0.818
		c0.04,0.326-0.111,0.888-0.454,1.685c-0.356,0.815-0.683,1.878-0.979,3.19c-0.316,1.394-0.426,2.493-0.326,3.299
		c0.08,0.651,0.339,1.163,0.778,1.534c0.122,0.095,0.462,0.234,1.02,0.417c0.41,0.138,0.645,0.44,0.701,0.906
		c0.036,0.295-0.043,0.548-0.237,0.761c-0.207,0.23-0.467,0.365-0.776,0.403c-0.838,0.103-1.604-0.181-2.301-0.851
		c-0.571-0.544-0.912-1.273-1.024-2.188C86.426,88.013,86.395,87.498,86.369,86.776z M88.336,78.766
		c-0.228-0.318-0.46-0.546-0.697-0.682c-0.236-0.136-0.479-0.189-0.728-0.159c-1.179,0.145-2.331,1.334-3.459,3.565
		c-1.239,2.466-1.763,4.49-1.568,6.072c0.048,0.388,0.157,0.673,0.33,0.856c0.172,0.184,0.405,0.258,0.7,0.222
		c0.744-0.092,1.516-0.989,2.313-2.693c0.452-0.937,0.984-2.301,1.6-4.092c0.407-1.168,0.713-1.945,0.917-2.333
		C87.846,79.322,88.043,79.07,88.336,78.766z"/>
	<path style="&st1;" d="M95.625,81.768c1.319-1.815,2.877-3.62,4.672-5.415c0.645-0.646,1.341-1.259,2.088-1.838
		c0.375-0.282,0.616-0.43,0.726-0.443c0.232-0.028,0.485,0.114,0.761,0.426c0.162,0.169,0.253,0.331,0.271,0.486
		c0.034,0.279-0.214,0.696-0.744,1.249c-1.427,1.45-2.102,2.493-2.023,3.129c0.043,0.357,0.267,0.511,0.67,0.461
		c0.667-0.082,1.747-0.773,3.24-2.074c0.256-0.221,0.478-0.342,0.664-0.365c0.124-0.015,0.255,0.032,0.395,0.14
		c0.157,0.123,0.245,0.262,0.264,0.417c0.058,0.465-0.507,1.258-1.691,2.38c-1.239,1.191-2.471,1.862-3.696,2.012
		c-0.496,0.061-0.97-0.014-1.421-0.227c-0.384-0.173-0.609-0.539-0.678-1.097c-0.048-0.387,0.061-0.849,0.325-1.386
		c-1.118,1.019-2.378,2.685-3.778,4.998c-0.802,1.421-1.559,3.143-2.271,5.167c-0.269,0.757-0.667,1.168-1.194,1.233
		c-0.573,0.07-0.894-0.166-0.96-0.708c-0.065-0.527,0.211-1.994,0.829-4.399c0.914-3.575,1.985-6.391,3.213-8.447
		c0.757-1.273,1.438-1.947,2.043-2.021c0.201-0.025,0.395,0.014,0.581,0.117c0.221,0.13,0.345,0.312,0.373,0.544
		s-0.086,0.577-0.345,1.034c-0.053,0.086-0.399,0.655-1.042,1.71C96.309,79.85,95.886,80.823,95.625,81.768z"/>
	<path style="&st1;" d="M114.03,72.046c1.271-0.156,2.003,0.542,2.193,2.092c0.253,2.063-3.417,11.589-1.898,8.191
		c1.118-2.484-2.105,5.477-5.395,5.881c-0.899,0.11-1.609-0.228-2.131-1.014c-0.27-0.392-0.439-0.882-0.512-1.472
		c-0.244-1.985,0.174-4.225,1.253-6.718c1.007-2.312,2.298-4.17,3.873-5.576C112.335,72.608,113.208,72.146,114.03,72.046z
		 M112.69,81.136c-0.426-0.263-0.649-0.479-0.67-0.65c-0.016-0.124,0.191-0.496,0.619-1.115c1.203-1.738,1.746-3.087,1.628-4.049
		c-0.016-0.124-0.069-0.243-0.162-0.357c-0.152-0.218-0.36-0.31-0.624-0.278c-0.497,0.061-1.167,0.631-2.01,1.711
		c-1.089,1.394-1.878,2.789-2.367,4.187c-0.575,1.598-0.802,2.893-0.68,3.885c0.032,0.264,0.131,0.489,0.295,0.673
		c0.235,0.254,0.509,0.362,0.818,0.324c0.745-0.092,1.476-0.748,2.19-1.969c0.315-0.511,0.559-1.029,0.731-1.554
		C112.63,81.419,112.708,81.15,112.69,81.136z"/>
	<path style="&st1;" d="M71.292,123.411l0.91-0.277c3.348-1.072,5.696-1.691,7.045-1.856c0.978-0.12,1.515,0.215,1.611,1.006
		c0.061,0.496-0.092,0.854-0.459,1.072c-0.248,0.156-0.688,0.289-1.32,0.398c-3.986,0.741-6.983,1.589-8.991,2.544
		c-0.671,1.326-1.593,3.762-2.763,7.306c-0.676,2.066-1.167,3.961-1.476,5.683c0.342-0.167,0.676-0.334,1.001-0.5
		c2.201-1.058,3.829-1.77,4.886-2.135c1.408-0.457,2.748-0.763,4.021-0.919c0.837-0.103,1.47-0.078,1.897,0.074
		c0.378,0.126,0.597,0.431,0.655,0.911c0.06,0.48-0.119,0.825-0.534,1.033c-0.194,0.087-0.67,0.186-1.428,0.294
		c-4.084,0.722-7.619,2.179-10.609,4.372c-0.39,0.284-0.732,0.444-1.027,0.48c-0.434,0.053-0.849-0.124-1.246-0.531
		c-0.34-0.336-0.534-0.698-0.581-1.086c-0.048-0.388,0.266-1.875,0.939-4.461c1.015-3.918,2.521-8.259,4.518-13.022
		c0.594-1.442,1.757-3.891,3.489-7.347c0.39-0.804,0.766-1.589,1.128-2.358c-0.64-0.079-1-0.452-1.082-1.119
		c-0.062-0.496,0.142-0.891,0.61-1.185c0.76-0.471,2.267-1.026,4.518-1.665c3.362-0.948,6.238-1.569,8.627-1.862
		c1.349-0.166,2.067,0.108,2.155,0.822c0.061,0.496-0.121,0.943-0.544,1.342c-0.212,0.199-0.573,0.33-1.085,0.393
		c-0.031,0.004-0.211,0.018-0.538,0.042c-0.232,0.029-0.488,0.06-0.768,0.095c-1.116,0.137-2.715,0.451-4.796,0.943
		c-1.806,0.426-3.343,0.914-4.613,1.464c0.183,0.213,0.283,0.39,0.301,0.529c0.032,0.264-0.258,0.914-0.871,1.949l-0.905,1.859
		C72.659,120.252,71.767,122.156,71.292,123.411z"/>
	<path style="&st1;" d="M84.219,131.198c0.179-0.211,0.351-0.421,0.514-0.63c2.853-3.562,4.83-5.41,5.931-5.545
		c0.604-0.075,0.948,0.222,1.03,0.889c0.057,0.465-0.146,1.049-0.612,1.751c-2.537,3.823-3.644,7.051-3.32,9.688
		c0.105,0.853,0.438,1.639,0.998,2.357c0.261,0.33,0.403,0.596,0.429,0.797c0.022,0.187-0.048,0.376-0.214,0.569
		c-0.175,0.242-0.401,0.38-0.681,0.414c-0.637,0.078-1.221-0.259-1.754-1.013c-0.512-0.708-0.835-1.605-0.968-2.69
		c-0.257-2.094,0.249-4.51,1.519-7.247c-1.943,1.608-3.612,4.237-5.006,7.888c-0.364,0.879-0.81,1.351-1.337,1.416
		c-0.264,0.032-0.493-0.034-0.686-0.199c-0.244-0.19-0.387-0.457-0.429-0.798c-0.104-0.838,0.581-3.148,2.053-6.935
		c0.787-2.049,1.423-3.544,1.905-4.484c0.484-0.926,0.937-1.414,1.354-1.466c0.202-0.024,0.407,0.045,0.616,0.208
		c0.244,0.19,0.383,0.425,0.417,0.705c0.042,0.341-0.123,0.857-0.494,1.548C84.95,129.448,84.528,130.373,84.219,131.198z"/>
	<path style="&st1;" d="M99.805,122.743c1.226-0.15,1.917,0.418,2.075,1.706c0.139,1.132-0.163,2.327-0.906,3.583
		c-0.575,0.952-1.119,1.46-1.631,1.522c-0.435,0.054-0.683-0.168-0.743-0.664c-0.032-0.264,0.004-0.481,0.109-0.651
		c0.038-0.067,0.202-0.269,0.492-0.604c0.247-0.297,0.485-0.729,0.715-1.292c0.158-0.381,0.224-0.681,0.197-0.898
		c-0.03-0.248-0.186-0.355-0.465-0.32c-0.325,0.04-0.79,0.356-1.395,0.95c-0.953,0.951-1.851,2.368-2.689,4.25
		c-0.861,1.963-1.227,3.472-1.097,4.526c0.042,0.342,0.18,0.632,0.413,0.87c0.344,0.367,0.765,0.521,1.261,0.46
		c0.978-0.12,2.059-0.867,3.243-2.24c1.005-1.179,1.831-2.335,2.479-3.469c0.333-0.624,0.647-0.953,0.941-0.989
		c0.171-0.021,0.335,0.037,0.494,0.175c0.143,0.141,0.224,0.287,0.243,0.442c0.07,0.574-0.529,1.781-1.799,3.622
		c-2.021,2.893-3.986,4.456-5.895,4.69c-1.147,0.141-2.074-0.162-2.779-0.91c-0.509-0.552-0.813-1.238-0.914-2.061
		c-0.198-1.612,0.239-3.563,1.312-5.852c1.038-2.19,2.326-4.009,3.864-5.457C98.237,123.298,99.061,122.835,99.805,122.743z"/>
	<path style="&st1;" d="M113.32,120.494c1.271-0.156,2.003,0.542,2.193,2.092c0.253,2.063-0.38,4.793-1.899,8.191
		c-1.657,3.683-3.455,5.643-5.394,5.881c-0.899,0.11-1.61-0.228-2.132-1.014c-0.269-0.392-0.438-0.883-0.511-1.472
		c-0.244-1.985,0.173-4.225,1.252-6.719c1.008-2.312,2.299-4.171,3.873-5.576C111.625,121.056,112.498,120.595,113.32,120.494z
		 M111.98,129.584c-0.426-0.262-0.649-0.479-0.671-0.649c-0.015-0.124,0.191-0.496,0.619-1.115c1.203-1.738,1.746-3.087,1.629-4.049
		c-0.016-0.124-0.07-0.243-0.162-0.358c-0.153-0.217-0.361-0.31-0.625-0.277c-0.496,0.061-1.166,0.631-2.01,1.71
		c-1.088,1.394-1.877,2.789-2.366,4.188c-0.576,1.598-0.803,2.893-0.681,3.886c0.032,0.264,0.131,0.487,0.295,0.672
		c0.236,0.254,0.51,0.362,0.819,0.324c0.745-0.092,1.475-0.748,2.19-1.969c0.315-0.512,0.559-1.029,0.73-1.555
		C111.92,129.867,111.998,129.599,111.98,129.584z"/>
	<path style="&st1;" d="M123.286,130.888c-0.553,1.013-1.051,1.83-1.494,2.451c-0.777,1.103-1.608,1.708-2.492,1.817
		c-0.76,0.093-1.391-0.176-1.894-0.807c-0.354-0.445-0.571-1.001-0.653-1.668c-0.246-2,0.325-4.4,1.714-7.2
		c0.642-1.307,1.312-2.326,2.009-3.057c0.542-0.586,1.007-0.903,1.395-0.95c0.218-0.027,0.431,0.042,0.64,0.205
		c0.176,0.152,0.274,0.313,0.296,0.483c0.036,0.295-0.192,0.811-0.685,1.548c-1.099,1.693-1.902,3.225-2.411,4.594
		c-0.591,1.6-0.833,2.826-0.729,3.679c0.026,0.217,0.098,0.378,0.212,0.481c0.115,0.104,0.267,0.145,0.452,0.122
		c0.791-0.098,1.753-1.364,2.887-3.802c0.584-1.268,1.052-2.648,1.404-4.139c0.184-0.81,0.463-1.545,0.839-2.205
		c0.368-0.597,0.761-0.92,1.18-0.972c0.232-0.029,0.454,0.047,0.665,0.225c0.229,0.192,0.358,0.42,0.391,0.684
		c0.068,0.559-0.312,1.88-1.142,3.965c-0.563,1.439-0.79,2.608-0.68,3.508c0.118,0.962,0.475,1.752,1.07,2.372
		c0.163,0.169,0.625,0.411,1.388,0.727c0.366,0.16,0.577,0.465,0.632,0.914c0.034,0.279-0.056,0.534-0.271,0.766
		s-0.494,0.367-0.836,0.409c-0.775,0.096-1.519-0.128-2.23-0.67c-0.643-0.488-1.106-1.25-1.391-2.285
		C123.502,131.948,123.414,131.55,123.286,130.888z"/>
	<path style="&st1;" d="M132.932,125.217c0.179-0.21,0.35-0.42,0.513-0.629c2.853-3.562,4.83-5.41,5.931-5.545
		c0.605-0.074,0.948,0.222,1.03,0.889c0.058,0.465-0.146,1.049-0.611,1.751c-2.537,3.822-3.645,7.051-3.32,9.688
		c0.104,0.853,0.437,1.638,0.997,2.356c0.262,0.33,0.404,0.596,0.429,0.798c0.023,0.186-0.048,0.376-0.213,0.569
		c-0.176,0.241-0.402,0.38-0.682,0.414c-0.636,0.078-1.221-0.26-1.754-1.013c-0.512-0.709-0.834-1.605-0.968-2.691
		c-0.257-2.094,0.249-4.509,1.519-7.247c-1.942,1.608-3.611,4.238-5.005,7.888c-0.364,0.879-0.811,1.352-1.338,1.416
		c-0.264,0.032-0.492-0.034-0.685-0.199c-0.244-0.19-0.387-0.456-0.429-0.798c-0.103-0.837,0.582-3.148,2.053-6.935
		c0.787-2.049,1.422-3.544,1.904-4.484c0.484-0.925,0.937-1.414,1.355-1.465c0.201-0.025,0.406,0.045,0.615,0.208
		c0.244,0.19,0.383,0.425,0.417,0.705c0.042,0.341-0.122,0.857-0.494,1.548C133.661,123.467,133.239,124.392,132.932,125.217z"/>
	<path style="&st1;" d="M148.542,116.193c-0.816,1.69-1.531,3.557-2.146,5.6c-0.886,2.911-1.245,5.049-1.077,6.414
		c0.047,0.388,0.164,0.672,0.353,0.854c0.187,0.182,0.444,0.253,0.77,0.213c0.775-0.096,1.624-0.94,2.546-2.533
		c0.588-0.985,1.098-1.96,1.53-2.927c0.231-0.548,0.518-0.843,0.859-0.885c0.201-0.024,0.381,0.024,0.537,0.147
		c0.142,0.124,0.221,0.256,0.237,0.396c0.071,0.574-0.524,1.946-1.785,4.115c-1.505,2.61-3.003,4.005-4.491,4.188
		c-0.791,0.098-1.495-0.186-2.112-0.85c-0.383-0.426-0.626-1.064-0.73-1.918c-0.23-1.876,0.044-4.13,0.823-6.76
		c0.188-0.652,0.732-2.239,1.635-4.758c-0.405,0.16-0.716,0.254-0.934,0.28c-0.325,0.04-0.622-0.002-0.89-0.127
		c-0.367-0.175-0.571-0.426-0.611-0.751c-0.048-0.388,0.14-0.726,0.561-1.013c0.116-0.078,0.678-0.249,1.684-0.514
		c0.365-0.108,0.89-0.322,1.574-0.643c0.424-1.043,1.145-2.478,2.164-4.303c0.568-1.014,0.967-1.677,1.195-1.989
		c0.325-0.433,0.627-0.667,0.906-0.701c0.201-0.025,0.417,0.059,0.645,0.251c0.211,0.179,0.329,0.369,0.354,0.57
		c0.05,0.403-0.286,1.256-1.008,2.556c-0.479,0.846-0.828,1.527-1.048,2.042c1.664-0.676,2.868-1.061,3.612-1.152
		c0.854-0.105,1.323,0.2,1.411,0.913c0.044,0.356-0.071,0.638-0.345,0.845c-0.145,0.112-0.538,0.24-1.182,0.381
		c-0.266,0.017-1.4,0.456-3.404,1.315C149.621,115.69,149.077,115.938,148.542,116.193z"/>
	<path style="&st1;" d="M154.765,126.102l0.052,0.419c0.042,0.342,0.163,0.625,0.364,0.853c0.458,0.526,1.129,0.735,2.013,0.627
		c1.939-0.238,3.997-2.002,6.175-5.292c0.387-0.567,0.735-0.87,1.045-0.908c0.171-0.021,0.337,0.045,0.497,0.199
		c0.108,0.113,0.169,0.223,0.183,0.332c0.074,0.605-0.544,1.72-1.855,3.345c-1.025,1.275-2.152,2.35-3.383,3.225
		s-2.412,1.382-3.544,1.522c-1.163,0.143-2.128-0.148-2.894-0.873c-0.519-0.503-0.837-1.235-0.955-2.197
		c-0.321-2.621,0.597-5.339,2.754-8.154c1.749-2.292,3.368-3.531,4.857-3.713c0.402-0.05,0.782,0.03,1.139,0.238
		c0.442,0.276,0.697,0.678,0.762,1.205c0.101,0.822-0.155,1.876-0.769,3.164C159.943,122.766,157.797,124.77,154.765,126.102z
		 M155.054,124.225c1.04-0.505,1.841-1.029,2.404-1.57c0.983-0.971,1.728-2.022,2.234-3.155c0.187-0.4,0.262-0.749,0.226-1.043
		c-0.038-0.311-0.204-0.447-0.499-0.411c-0.403,0.05-0.94,0.422-1.61,1.119C156.606,120.397,155.688,122.085,155.054,124.225z"/>
	<path style="&st1;" d="M169.866,121.013c1.32-1.815,2.877-3.62,4.672-5.414c0.646-0.646,1.341-1.259,2.088-1.839
		c0.375-0.282,0.616-0.43,0.726-0.443c0.232-0.028,0.486,0.113,0.761,0.426c0.162,0.169,0.253,0.331,0.272,0.486
		c0.034,0.279-0.215,0.695-0.745,1.249c-1.427,1.45-2.102,2.494-2.023,3.129c0.044,0.357,0.267,0.51,0.671,0.461
		c0.666-0.082,1.746-0.773,3.239-2.075c0.256-0.22,0.478-0.341,0.664-0.364c0.124-0.015,0.255,0.031,0.395,0.14
		c0.157,0.123,0.245,0.261,0.264,0.416c0.058,0.466-0.507,1.259-1.691,2.38c-1.239,1.191-2.471,1.862-3.696,2.012
		c-0.496,0.061-0.97-0.015-1.421-0.227c-0.384-0.173-0.609-0.539-0.678-1.097c-0.048-0.388,0.062-0.85,0.326-1.386
		c-1.119,1.019-2.378,2.685-3.779,4.998c-0.802,1.42-1.558,3.143-2.27,5.167c-0.27,0.758-0.668,1.169-1.195,1.233
		c-0.573,0.07-0.894-0.166-0.96-0.709c-0.064-0.527,0.212-1.994,0.829-4.399c0.915-3.576,1.986-6.392,3.214-8.447
		c0.756-1.273,1.437-1.948,2.042-2.022c0.201-0.024,0.396,0.015,0.581,0.118c0.221,0.13,0.346,0.312,0.374,0.544
		c0.028,0.233-0.087,0.578-0.346,1.034c-0.053,0.085-0.399,0.655-1.041,1.71C170.552,119.095,170.128,120.067,169.866,121.013z"/>
</g>
</svg>
