<?xml version="1.0" encoding="UTF-8" standalone="no"?>
<!-- Created with Inkscape (http://www.inkscape.org/) -->

<svg
   xmlns:dc="http://purl.org/dc/elements/1.1/"
   xmlns:cc="http://creativecommons.org/ns#"
   xmlns:rdf="http://www.w3.org/1999/02/22-rdf-syntax-ns#"
   xmlns:svg="http://www.w3.org/2000/svg"
   xmlns="http://www.w3.org/2000/svg"
   xmlns:sodipodi="http://sodipodi.sourceforge.net/DTD/sodipodi-0.dtd"
   xmlns:inkscape="http://www.inkscape.org/namespaces/inkscape"
   width="64"
   height="64"
   viewBox="0 0 63.999999 63.999999"
   id="svg2"
   version="1.1"
   inkscape:version="0.91 r13725"
   sodipodi:docname="ic_launcher.svg">
  <defs
     id="defs4" />
  <sodipodi:namedview
     id="base"
     pagecolor="#ffffff"
     bordercolor="#666666"
     borderopacity="1.0"
     inkscape:pageopacity="0.0"
     inkscape:pageshadow="2"
     inkscape:zoom="11.2"
     inkscape:cx="27.044775"
     inkscape:cy="34.70927"
     inkscape:document-units="px"
     inkscape:current-layer="layer2"
     showgrid="true"
     units="px"
     showguides="false"
     inkscape:window-width="1920"
     inkscape:window-height="1027"
     inkscape:window-x="-8"
     inkscape:window-y="-8"
     inkscape:window-maximized="1">
    <inkscape:grid
       type="xygrid"
       id="grid3348" />
  </sodipodi:namedview>
  <metadata
     id="metadata7">
    <rdf:RDF>
      <cc:Work
         rdf:about="">
        <dc:format>image/svg+xml</dc:format>
        <dc:type
           rdf:resource="http://purl.org/dc/dcmitype/StillImage" />
        <dc:title />
      </cc:Work>
    </rdf:RDF>
  </metadata>
  <g
     inkscape:label="レイヤー 1"
     inkscape:groupmode="layer"
     id="layer1"
     transform="translate(0,-988.3622)"
     style="display:inline">
    <path
       style="fill:none;fill-rule:evenodd;stroke:#000000;stroke-width:1.16250145px;stroke-linecap:butt;stroke-linejoin:miter;stroke-opacity:1"
       d="m 1.398219,996.58809 c 0,-1.1625 5.812507,-5.81251 5.812507,-5.81251 l 40.687549,0 5.812507,5.81251 0,23.25011 -5.812507,23.25 -5.812507,5.8125 -29.062535,0 -5.812507,-5.8125 -5.812507,-23.25 0,-23.37466 0,0.12455"
       id="path3378"
       inkscape:connector-curvature="0"
       sodipodi:nodetypes="cccccccccccc" />
    <path
       style="fill:none;fill-rule:evenodd;stroke:#000000;stroke-width:1.16250145px;stroke-linecap:butt;stroke-linejoin:miter;stroke-opacity:1"
       d="m 8.3714403,997.43741 0.2678571,28.08039 6.9732216,17.0804 24.598249,0.2679 5.991078,-17.259 -0.08929,-28.16969 z"
       id="path3380"
       inkscape:connector-curvature="0"
       sodipodi:nodetypes="ccccccc" />
    <path
       style="fill:none;fill-rule:evenodd;stroke:#000000;stroke-width:1.16250145px;stroke-linecap:butt;stroke-linejoin:miter;stroke-opacity:1"
       d="m 13.023233,1013.7142 11.625014,0 0,-11.625 5.812507,0 0,11.625 11.625014,0 0,5.8125 -11.625014,0 0,17.4376 -5.812507,0 0,-17.4376 -11.625014,0 z"
       id="path3382"
       inkscape:connector-curvature="0" />
    <path
       style="fill:#cccccc"
       d="m 25.229651,1027.6022 0,-8.7188 -5.812507,0 -5.812507,0 0,-2.2835 0,-2.2835 5.812507,0 5.812507,0 0,-5.8125 0,-5.8125 2.283485,0 2.283484,0 0,5.8125 0,5.8125 5.812507,0 5.812507,0 0,2.2835 0,2.2835 -5.812507,0 -5.812507,0 0,8.7188 0,8.7187 -2.283484,0 -2.283485,0 0,-8.7187 z"
       id="path3388"
       inkscape:connector-curvature="0" />
    <path
       style="fill:none;fill-rule:evenodd;stroke:#000000;stroke-width:1px;stroke-linecap:butt;stroke-linejoin:miter;stroke-opacity:1"
       d="m 27.589286,1012.0943 -5,5 5,5 5,-5 z"
       id="path3465"
       inkscape:connector-curvature="0" />
    <path
       style="fill:#ff5100;fill-opacity:0.32367146"
       d="m 25.442638,1019.1828 -2.075158,-2.0772 2.120588,-2.1192 2.120588,-2.1192 2.104488,2.1205 2.104489,2.1206 -0.882629,0.8482 c -0.485446,0.4665 -0.940589,0.8612 -1.011429,0.8771 -0.07084,0.016 -0.1288,0.077 -0.1288,0.1353 0,0.099 -2.13722,2.2912 -2.233529,2.2912 -0.0239,0 -0.977271,-0.9348 -2.118608,-2.0773 z"
       id="path3467"
       inkscape:connector-curvature="0" />
    <path
       style="fill:#73b68c;fill-opacity:0.60679615"
       d="m 10.54196,1045.5235 -2.7785368,-2.7902 -2.8682529,-11.4953 -2.8682529,-11.4953 0,-11.594 0,-11.59398 0.2806289,-0.39286 c 0.4113826,-0.57591 2.1079659,-2.2119 3.6832116,-3.55168 l 1.3774344,-1.17154 20.1647337,0 20.164733,0 2.700343,2.70144 2.700344,2.70143 0,11.45059 0,11.4506 -2.868253,11.4953 -2.868252,11.4953 -2.778538,2.7902 -2.778536,2.7901 -14.242135,0 -14.242135,0 -2.778537,-2.7901 z m 33.199779,-10.9375 3.088946,-8.9063 -0.0491,-14.4419 -0.0491,-14.44201 -19.507317,0 -19.5073166,0 0.057778,4.35271 c 0.031778,2.3939 0.1013094,8.8896 0.154514,14.4349 l 0.096736,10.0822 3.5795206,8.7689 3.579521,8.7689 5.451749,0.064 c 2.998462,0.035 7.782107,0.093 10.630321,0.1298 2.848214,0.036 6.124974,0.072 7.281687,0.081 l 2.103117,0.015 3.088946,-8.9062 z"
       id="path3469"
       inkscape:connector-curvature="0" />
    <path
       style="fill:#afffff;fill-opacity:0.16908211"
       d="m 29.169775,1042.1376 c -3.953125,-0.041 -8.529815,-0.1044 -10.170421,-0.1411 l -2.982921,-0.067 -3.372516,-8.2616 -3.3725165,-8.2615 -0.093095,-9.5956 c -0.051202,-5.2776 -0.1183941,-11.4337 -0.1493154,-13.6804 l -0.056221,-4.08481 18.2536677,0 18.253668,0 0.05868,13.68301 0.05867,13.6831 -2.915938,8.4151 -2.915939,8.4152 -1.704152,-0.015 c -0.937283,-0.01 -4.938526,-0.049 -8.891651,-0.09 z m 1.875,-13.243 0,-8.7047 5.825893,-0.023 5.825892,-0.023 0,-3.5268 0,-3.5268 -5.825892,-0.023 -5.825893,-0.023 0,-5.8029 0,-5.803 -3.526786,0 -3.526786,0 0,5.803 0,5.8029 -5.78125,0.023 -5.78125,0.023 0,3.5268 0,3.5268 5.78125,0.023 5.78125,0.023 0,8.7047 0,8.7047 3.526786,0 3.526786,0 0,-8.7047 z"
       id="path3471"
       inkscape:connector-curvature="0" />
  </g>
  <g
     inkscape:groupmode="layer"
     id="layer2"
     inkscape:label="レイヤー 2"
     style="display:inline">
    <path
       style="fill:none;fill-rule:evenodd;stroke:#000000;stroke-width:1.16250134px;stroke-linecap:butt;stroke-linejoin:miter;stroke-opacity:1"
       d="m 62.495126,16.173339 -20.307048,5.179951 -11.23777,21.167464 -8.208861,0.430209 3.541669,4.753233 3.369586,1.469689 -6.914745,9.416934 -2.419638,0.949948 0.949949,2.419638 2.505679,0.691823 0.691823,-2.505679 8.64256,-7.861203 1.813855,3.197502 5.0974,3.02542 -0.430208,-8.208861 19.876839,-13.388812 z"
       id="path3350"
       inkscape:connector-curvature="0" />
    <path
       style="fill:none;fill-rule:evenodd;stroke:#000000;stroke-width:1.16250134px;stroke-linecap:butt;stroke-linejoin:miter;stroke-opacity:1"
       d="m 35.269842,46.410081 -2.505679,-0.691824 -1.55573,1.727814 0.949948,2.419637 2.505679,0.691824 1.555731,-1.727814 z"
       id="path3352"
       inkscape:connector-curvature="0" />
    <path
       style="fill:none;fill-rule:evenodd;stroke:#000000;stroke-width:1.16250134px;stroke-linecap:butt;stroke-linejoin:miter;stroke-opacity:1"
       d="m 62.495126,16.173339 -25.669553,28.508928 -5.875265,-2.161513 0,0"
       id="path3354"
       inkscape:connector-curvature="0" />
    <path
       style="fill:none;fill-rule:evenodd;stroke:#000000;stroke-width:1.16250134px;stroke-linecap:butt;stroke-linejoin:miter;stroke-opacity:1"
       d="m 36.825573,44.682267 2.763804,5.61714 0,0"
       id="path3356"
       inkscape:connector-curvature="0" />
    <path
       style="fill:#f2f2f2;fill-opacity:0.95073891"
       d="m 31.910126,42.05505 c 0.02744,-0.06564 2.443221,-4.626625 5.368401,-10.135521 L 42.597037,21.903356 51.659819,19.5883 60.722603,17.273244 48.706499,30.616742 36.690395,43.96024 34.275322,43.067324 c -1.580298,-0.584278 -2.397829,-0.934169 -2.365183,-1.012262 l 3e-6,2e-6 z"
       id="path3358"
       inkscape:connector-curvature="0" />
    <path
       style="fill:#999999;fill-opacity:0.8866995"
       d="M 38.691459,47.054374 37.597792,44.817618 49.536251,31.558617 c 6.566151,-7.292451 11.950189,-13.248437 11.96453,-13.235525 0.01434,0.01291 -0.573551,4.118859 -1.306422,9.124329 l -1.332492,9.100853 -9.449263,6.366662 c -5.197095,3.501664 -9.489361,6.368807 -9.538369,6.371428 -0.04901,0.0026 -0.581258,-1.001773 -1.182773,-2.231988 z"
       id="path3360"
       inkscape:connector-curvature="0" />
    <path
       style="fill:#ff0000"
       d="m 32.244008,48.398036 -0.322615,-0.843871 0.504574,-0.560385 0.504574,-0.560386 0.950485,0.265754 0.950486,0.265755 0.336936,0.863879 0.336937,0.863878 -0.519341,0.576787 -0.519342,0.576787 -0.893948,-0.244676 c -0.491671,-0.134573 -0.919189,-0.270547 -0.950039,-0.302164 -0.03081,-0.03166 -0.201268,-0.437229 -0.378707,-0.901358 z"
       id="path3362"
       inkscape:connector-curvature="0" />
    <path
       style="fill:#808000;fill-opacity:0.65024632"
       d="m 21.463226,60.67909 c -0.156009,-0.401263 -0.26783,-0.747141 -0.248495,-0.768615 0.01934,-0.02148 0.458993,-0.206114 0.977017,-0.410309 l 0.941859,-0.371265 3.729633,-5.091835 c 2.173419,-2.967234 3.694533,-5.11615 3.645512,-5.150105 -0.04623,-0.03208 -0.9263,-0.427627 -1.955628,-0.879064 l -1.871505,-0.820796 -1.364046,-1.830643 -1.364047,-1.830645 3.477426,-0.17665 3.477427,-0.17665 2.738093,1.009938 2.738092,1.009937 1.278252,2.598146 1.278251,2.598146 0.181392,3.482855 0.181391,3.482854 -1.975693,-1.182348 -1.975694,-1.182348 -1.035269,-1.836185 c -1.011049,-1.793226 -1.039635,-1.833004 -1.22189,-1.70031 -0.102642,0.07473 -2.208081,1.980445 -4.678755,4.23492 l -4.492134,4.099044 -0.293334,1.051726 -0.293332,1.051724 -0.632178,-0.187159 c -0.347698,-0.102937 -0.705643,-0.211376 -0.795436,-0.240976 -0.09372,-0.03089 -0.284076,-0.364564 -0.446909,-0.783387 z m 14.448515,-10.576306 1.044085,-1.159575 -0.574435,-1.457596 c -0.315938,-0.801679 -0.625845,-1.503886 -0.688678,-1.560462 -0.06283,-0.05657 -0.793588,-0.291383 -1.6239,-0.521793 l -1.509656,-0.418928 -1.044101,1.159591 -1.044101,1.159592 0.605742,1.537701 0.605739,1.537701 1.59261,0.441672 1.592608,0.441672 1.044087,-1.159575 z"
       id="path3364"
       inkscape:connector-curvature="0" />
  </g>
</svg>
