<?xml version="1.0" encoding="UTF-8" standalone="no"?>
<!-- Created with Inkscape (http://www.inkscape.org/) -->

<svg
   xmlns:dc="http://purl.org/dc/elements/1.1/"
   xmlns:cc="http://creativecommons.org/ns#"
   xmlns:rdf="http://www.w3.org/1999/02/22-rdf-syntax-ns#"
   xmlns:svg="http://www.w3.org/2000/svg"
   xmlns="http://www.w3.org/2000/svg"
   xmlns:sodipodi="http://sodipodi.sourceforge.net/DTD/sodipodi-0.dtd"
   xmlns:inkscape="http://www.inkscape.org/namespaces/inkscape"
   width="64"
   height="64"
   viewBox="0 0 63.999999 63.999999"
   id="svg2"
   version="1.1"
   inkscape:version="0.91 r13725"
   sodipodi:docname="描画.svg">
  <defs
     id="defs4" />
  <sodipodi:namedview
     id="base"
     pagecolor="#ffffff"
     bordercolor="#666666"
     borderopacity="1.0"
     inkscape:pageopacity="0.0"
     inkscape:pageshadow="2"
     inkscape:zoom="11.2"
     inkscape:cx="27.044775"
     inkscape:cy="34.70927"
     inkscape:document-units="px"
     inkscape:current-layer="layer1"
     showgrid="true"
     units="px"
     showguides="false"
     inkscape:window-width="1920"
     inkscape:window-height="1027"
     inkscape:window-x="-8"
     inkscape:window-y="-8"
     inkscape:window-maximized="1">
    <inkscape:grid
       type="xygrid"
       id="grid3348" />
  </sodipodi:namedview>
  <metadata
     id="metadata7">
    <rdf:RDF>
      <cc:Work
         rdf:about="">
        <dc:format>image/svg+xml</dc:format>
        <dc:type
           rdf:resource="http://purl.org/dc/dcmitype/StillImage" />
        <dc:title></dc:title>
      </cc:Work>
    </rdf:RDF>
  </metadata>
  <g
     inkscape:label="レイヤー 1"
     inkscape:groupmode="layer"
     id="layer1"
     transform="translate(0,-988.3622)"
     style="display:inline">
    <path
       style="fill:none;fill-rule:evenodd;stroke:#000000;stroke-width:1.16250145px;stroke-linecap:butt;stroke-linejoin:miter;stroke-opacity:1"
       d="m 1.398219,996.58809 c 0,-1.1625 5.812507,-5.81251 5.812507,-5.81251 l 40.687549,0 5.812507,5.81251 0,23.25011 -5.812507,23.25 -5.812507,5.8125 -29.062535,0 -5.812507,-5.8125 -5.812507,-23.25 0,-23.37466 0,0.12455"
       id="path3378"
       inkscape:connector-curvature="0"
       sodipodi:nodetypes="cccccccccccc" />
    <path
       style="fill:none;fill-rule:evenodd;stroke:#000000;stroke-width:1.16250145px;stroke-linecap:butt;stroke-linejoin:miter;stroke-opacity:1"
       d="m 8.3714403,997.43741 0.2678571,28.08039 6.9732216,17.0804 24.598249,0.2679 5.991078,-17.259 -0.08929,-28.16969 z"
       id="path3380"
       inkscape:connector-curvature="0"
       sodipodi:nodetypes="ccccccc" />
    <path
       style="fill:none;fill-rule:evenodd;stroke:#000000;stroke-width:1.16250145px;stroke-linecap:butt;stroke-linejoin:miter;stroke-opacity:1"
       d="m 13.023233,1013.7142 11.625014,0 0,-11.625 5.812507,0 0,11.625 11.625014,0 0,5.8125 -11.625014,0 0,17.4376 -5.812507,0 0,-17.4376 -11.625014,0 z"
       id="path3382"
       inkscape:connector-curvature="0" />
    <path
       style="fill:#cccccc"
       d="m 25.229651,1027.6022 0,-8.7188 -5.812507,0 -5.812507,0 0,-2.2835 0,-2.2835 5.812507,0 5.812507,0 0,-5.8125 0,-5.8125 2.283485,0 2.283484,0 0,5.8125 0,5.8125 5.812507,0 5.812507,0 0,2.2835 0,2.2835 -5.812507,0 -5.812507,0 0,8.7188 0,8.7187 -2.283484,0 -2.283485,0 0,-8.7187 z"
       id="path3388"
       inkscape:connector-curvature="0" />
    <path
       style="fill:none;fill-rule:evenodd;stroke:#000000;stroke-width:1px;stroke-linecap:butt;stroke-linejoin:miter;stroke-opacity:1"
       d="m 27.589286,1012.0943 -5,5 5,5 5,-5 z"
       id="path3465"
       inkscape:connector-curvature="0" />
    <path
       style="fill:#ff5100;fill-opacity:0.32367146"
       d="m 25.442638,1019.1828 -2.075158,-2.0772 2.120588,-2.1192 2.120588,-2.1192 2.104488,2.1205 2.104489,2.1206 -0.882629,0.8482 c -0.485446,0.4665 -0.940589,0.8612 -1.011429,0.8771 -0.07084,0.016 -0.1288,0.077 -0.1288,0.1353 0,0.099 -2.13722,2.2912 -2.233529,2.2912 -0.0239,0 -0.977271,-0.9348 -2.118608,-2.0773 z"
       id="path3467"
       inkscape:connector-curvature="0" />
    <path
       style="fill:#73b68c;fill-opacity:0.60679615"
       d="m 10.54196,1045.5235 -2.7785368,-2.7902 -2.8682529,-11.4953 -2.8682529,-11.4953 0,-11.594 0,-11.59398 0.2806289,-0.39286 c 0.4113826,-0.57591 2.1079659,-2.2119 3.6832116,-3.55168 l 1.3774344,-1.17154 20.1647337,0 20.164733,0 2.700343,2.70144 2.700344,2.70143 0,11.45059 0,11.4506 -2.868253,11.4953 -2.868252,11.4953 -2.778538,2.7902 -2.778536,2.7901 -14.242135,0 -14.242135,0 -2.778537,-2.7901 z m 33.199779,-10.9375 3.088946,-8.9063 -0.0491,-14.4419 -0.0491,-14.44201 -19.507317,0 -19.5073166,0 0.057778,4.35271 c 0.031778,2.3939 0.1013094,8.8896 0.154514,14.4349 l 0.096736,10.0822 3.5795206,8.7689 3.579521,8.7689 5.451749,0.064 c 2.998462,0.035 7.782107,0.093 10.630321,0.1298 2.848214,0.036 6.124974,0.072 7.281687,0.081 l 2.103117,0.015 3.088946,-8.9062 z"
       id="path3469"
       inkscape:connector-curvature="0" />
    <path
       style="fill:#afffff;fill-opacity:0.16908211"
       d="m 29.169775,1042.1376 c -3.953125,-0.041 -8.529815,-0.1044 -10.170421,-0.1411 l -2.982921,-0.067 -3.372516,-8.2616 -3.3725165,-8.2615 -0.093095,-9.5956 c -0.051202,-5.2776 -0.1183941,-11.4337 -0.1493154,-13.6804 l -0.056221,-4.08481 18.2536677,0 18.253668,0 0.05868,13.68301 0.05867,13.6831 -2.915938,8.4151 -2.915939,8.4152 -1.704152,-0.015 c -0.937283,-0.01 -4.938526,-0.049 -8.891651,-0.09 z m 1.875,-13.243 0,-8.7047 5.825893,-0.023 5.825892,-0.023 0,-3.5268 0,-3.5268 -5.825892,-0.023 -5.825893,-0.023 0,-5.8029 0,-5.803 -3.526786,0 -3.526786,0 0,5.803 0,5.8029 -5.78125,0.023 -5.78125,0.023 0,3.5268 0,3.5268 5.78125,0.023 5.78125,0.023 0,8.7047 0,8.7047 3.526786,0 3.526786,0 0,-8.7047 z"
       id="path3471"
       inkscape:connector-curvature="0" />
  </g>
  <g
     inkscape:groupmode="layer"
     id="layer2"
     inkscape:label="レイヤー 2"
     style="display:inline">
    <g
       style="display:inline"
       id="g3366"
       transform="matrix(0.86390689,0.77786525,-0.77786525,0.86390689,808.50199,-864.47116)">
      <path
         inkscape:connector-curvature="0"
         id="path3350"
         d="m 30,992.3622 -10,15 5,20 -5,5 5,1 3,-1 1,10 -1,2 2,1 2,-1 -1,-2 1,-10 3,1 5,-1 -5,-5 5,-20 z"
         style="fill:none;fill-rule:evenodd;stroke:#000000;stroke-width:1px;stroke-linecap:butt;stroke-linejoin:miter;stroke-opacity:1" />
      <path
         inkscape:connector-curvature="0"
         id="path3352"
         d="m 30,1027.3622 -2,1 0,2 2,1 2,-1 0,-2 z"
         style="fill:none;fill-rule:evenodd;stroke:#000000;stroke-width:1px;stroke-linecap:butt;stroke-linejoin:miter;stroke-opacity:1" />
      <path
         inkscape:connector-curvature="0"
         id="path3354"
         d="m 30,992.3622 0,33 -5,2 0,0"
         style="fill:none;fill-rule:evenodd;stroke:#000000;stroke-width:1px;stroke-linecap:butt;stroke-linejoin:miter;stroke-opacity:1" />
      <path
         inkscape:connector-curvature="0"
         id="path3356"
         d="m 30,1025.3622 5,2 0,0"
         style="fill:none;fill-rule:evenodd;stroke:#000000;stroke-width:1px;stroke-linecap:butt;stroke-linejoin:miter;stroke-opacity:1" />
      <path
         transform="translate(0,988.3622)"
         inkscape:connector-curvature="0"
         id="path3358"
         d="m 25.34552,38.149825 c -0.02024,-0.05776 -1.101203,-4.36394 -2.402137,-9.569297 l -2.365335,-9.464286 4.460971,-6.696428 4.460972,-6.6964288 -0.001,15.4464288 -0.001,15.446428 -2.057827,0.819297 c -1.346535,0.536105 -2.070548,0.782999 -2.094629,0.714286 l 3e-6,0 z"
         style="fill:#f2f2f2" />
      <path
         transform="translate(0,988.3622)"
         inkscape:connector-curvature="0"
         id="path3360"
         d="m 32.558168,37.442406 -1.986608,-0.800367 0,-15.34772 c 0,-8.441246 0.01358,-15.3477196 0.03018,-15.3477196 0.0166,0 2.004146,2.9631697 4.416775,6.5848216 l 4.386597,6.584821 -2.375948,9.508929 c -1.306772,5.229911 -2.400347,9.53338 -2.430167,9.563265 -0.02982,0.02989 -0.948193,-0.305828 -2.040826,-0.74603 z"
         style="fill:#999999" />
      <path
         transform="translate(0,988.3622)"
         inkscape:connector-curvature="0"
         id="path3362"
         d="m 29.209953,42.012484 -0.691964,-0.35376 0,-0.648664 0,-0.648665 0.760578,-0.377208 0.760578,-0.377208 0.712636,0.358307 0.712636,0.358307 0,0.667649 0,0.66765 -0.712303,0.35814 c -0.391767,0.196976 -0.74333,0.35613 -0.78125,0.353676 -0.03792,-0.0025 -0.38033,-0.163656 -0.760911,-0.358224 z"
         style="fill:#ff0000" />
      <path
         transform="translate(0,988.3622)"
         inkscape:connector-curvature="0"
         id="path3364"
         d="m 29.387111,56.068685 c -0.330696,-0.166715 -0.601265,-0.323458 -0.601265,-0.348315 0,-0.02486 0.174779,-0.395955 0.388399,-0.824662 l 0.388398,-0.779466 -0.546619,-5.401785 c -0.318539,-3.147855 -0.583052,-5.397125 -0.633934,-5.390615 -0.04802,0.0061 -0.83829,0.259808 -1.756147,0.563697 l -1.668832,0.552525 -1.925695,-0.385125 -1.925696,-0.385125 2.121313,-2.114517 2.121313,-2.114517 2.331679,-0.930418 2.331678,-0.930417 2.312621,0.925144 2.312621,0.925144 2.120673,2.122054 2.120672,2.122054 -1.943543,0.381368 -1.943544,0.381369 -1.718709,-0.57791 c -1.6785,-0.564389 -1.71967,-0.573364 -1.759801,-0.383632 -0.0226,0.106853 -0.27161,2.536988 -0.553357,5.400301 l -0.512266,5.206022 0.417851,0.841171 0.417851,0.84117 -0.511856,0.244235 c -0.281521,0.134329 -0.572759,0.27104 -0.647198,0.303802 -0.07769,0.0342 -0.391441,-0.06954 -0.736607,-0.243552 z m 3.148735,-15.077548 0,-1.342245 -1.206201,-0.601146 C 30.666234,38.717115 30.063935,38.4466 29.991203,38.4466 c -0.07273,0 -0.675031,0.270515 -1.338442,0.601146 l -1.206201,0.601146 0,1.342264 0,1.342265 1.272322,0.634334 1.272321,0.634335 1.272322,-0.634354 1.272321,-0.634353 0,-1.342246 z"
         style="fill:#808000" />
    </g>
  </g>
</svg>
